<svg width="160" height="151" viewBox="0 0 197 151" fill="none" xmlns="http://www.w3.org/2000/svg">
<circle opacity="0.9" cx="28.5" cy="122.5" r="28.5" fill="#DFF172"/>
<circle opacity="0.9" cx="168.5" cy="122.5" r="28.5" fill="#DFF172"/>
<path opacity="0.9" d="M118.464 93.8221H80.9642C75.6908 93.8221 71.5892 98.2167 71.5892 103.197V140.697C71.5892 145.971 75.6908 150.072 80.9642 150.072H118.464C123.445 150.072 127.839 145.971 127.839 140.697V103.197C127.839 98.2167 123.445 93.8221 118.464 93.8221ZM62.2142 9.44714C62.2142 4.46667 57.8197 0.0721436 52.8392 0.0721436H15.3392C10.0658 0.0721436 5.96423 4.46667 5.96423 9.44714V46.9471C5.96423 52.2206 10.0658 56.3221 15.3392 56.3221H43.1713L64.558 94.1151C67.7806 88.2557 73.933 84.4471 80.9642 84.4471L62.2142 51.6346V37.5721H127.839V18.8221H62.2142V9.44714ZM184.089 0.0721436H146.589C141.316 0.0721436 137.214 4.46667 137.214 9.44714V46.9471C137.214 52.2206 141.316 56.3221 146.589 56.3221H184.089C189.07 56.3221 193.464 52.2206 193.464 46.9471V9.44714C193.464 4.46667 189.07 0.0721436 184.089 0.0721436Z" fill="white"/>
</svg>
